<mxfile host="app.diagrams.net" modified="2022-02-26T08:38:01.595Z" agent="5.0 (Windows NT 10.0; Win64; x64) AppleWebKit/537.36 (KHTML, like Gecko) Chrome/98.0.4758.102 Safari/537.36 Edg/98.0.1108.56" etag="0U1VmRg2MxuWG9LmErSg" version="16.6.4" type="github">
  <diagram id="V479EQ7KAgkgUyLgjUdQ" name="Page-1">
    <mxGraphModel dx="1303" dy="713" grid="1" gridSize="10" guides="1" tooltips="1" connect="1" arrows="1" fold="1" page="1" pageScale="1" pageWidth="827" pageHeight="1169" math="0" shadow="0">
      <root>
        <mxCell id="0" />
        <mxCell id="1" parent="0" />
        <mxCell id="4ZzyJBohuDkeGVYwBfIt-1" value="&lt;pre class=&quot;part in-view&quot; title=&quot;&quot; style=&quot;box-sizing: border-box ; border: inherit ; overflow: auto ; font-family: &amp;quot;menlo&amp;quot; , &amp;quot;monaco&amp;quot; , &amp;quot;consolas&amp;quot; , &amp;quot;courier new&amp;quot; , monospace ; font-size: 13.6px ; display: block ; padding: 16px ; margin: 0px 0px 16px ; line-height: 1.45 ; color: rgb(51 , 51 , 51) ; word-break: break-all ; overflow-wrap: normal ; background-color: rgb(247 , 247 , 247) ; border-radius: 3px ; font-style: normal ; font-weight: 400 ; letter-spacing: 0.35px ; text-indent: 0px ; text-transform: none ; word-spacing: 0px&quot;&gt;&lt;code class=&quot;dockerfile hljs&quot; style=&quot;box-sizing: border-box; border: 0px; font-family: menlo, monaco, consolas, &amp;quot;courier new&amp;quot;, monospace; font-size: 13.6px; padding: 0px; color: inherit; background: transparent; border-radius: 3px; display: inline; overflow: visible; margin: 0px; word-break: normal; line-height: inherit; overflow-wrap: normal;&quot;&gt;&lt;span class=&quot;hljs-keyword&quot; style=&quot;box-sizing: border-box ; border-color: rgba(231 , 231 , 231 ,) ; color: rgb(167 , 29 , 93)&quot;&gt;FROM&lt;/span&gt; python:&lt;span class=&quot;hljs-number&quot; style=&quot;box-sizing: border-box ; border-color: rgba(231 , 231 , 231 ,) ; color: rgb(0 , 134 , 179)&quot;&gt;3.8&lt;/span&gt;&#xa;&lt;span class=&quot;hljs-keyword&quot; style=&quot;box-sizing: border-box ; border-color: rgba(231 , 231 , 231 ,) ; color: rgb(167 , 29 , 93)&quot;&gt;RUN&lt;/span&gt;&lt;span class=&quot;language-bash&quot; style=&quot;box-sizing: border-box ; border-color: rgba(231 , 231 , 231 ,)&quot;&gt; apt-get -qq update&lt;/span&gt;&#xa;&lt;span class=&quot;hljs-keyword&quot; style=&quot;box-sizing: border-box ; border-color: rgba(231 , 231 , 231 ,) ; color: rgb(167 , 29 , 93)&quot;&gt;COPY&lt;/span&gt;&lt;span class=&quot;language-bash&quot; style=&quot;box-sizing: border-box ; border-color: rgba(231 , 231 , 231 ,)&quot;&gt; hello.py /app/&lt;/span&gt;&#xa;&lt;span class=&quot;hljs-keyword&quot; style=&quot;box-sizing: border-box ; border-color: rgba(231 , 231 , 231 ,) ; color: rgb(167 , 29 , 93)&quot;&gt;CMD&lt;/span&gt;&lt;span class=&quot;language-bash&quot; style=&quot;box-sizing: border-box ; border-color: rgba(231 , 231 , 231 ,)&quot;&gt; [&lt;span class=&quot;hljs-string&quot; style=&quot;box-sizing: border-box ; border-color: rgba(231 , 231 , 231 ,) ; color: rgb(223 , 80 , 0)&quot;&gt;&quot;python3&quot;&lt;/span&gt;, &lt;span class=&quot;hljs-string&quot; style=&quot;box-sizing: border-box ; border-color: rgba(231 , 231 , 231 ,) ; color: rgb(223 , 80 , 0)&quot;&gt;&quot;/app/hello.py&quot;&lt;/span&gt;]&lt;/span&gt;&lt;/code&gt;&lt;/pre&gt;" style="text;whiteSpace=wrap;html=1;" vertex="1" parent="1">
          <mxGeometry x="20" y="160" width="290" height="140" as="geometry" />
        </mxCell>
        <mxCell id="4ZzyJBohuDkeGVYwBfIt-2" value="&lt;font style=&quot;font-size: 18px&quot;&gt;Dockerfile&lt;/font&gt;" style="text;html=1;strokeColor=none;fillColor=none;align=center;verticalAlign=middle;whiteSpace=wrap;rounded=0;" vertex="1" parent="1">
          <mxGeometry x="30" y="140" width="60" height="30" as="geometry" />
        </mxCell>
        <mxCell id="4ZzyJBohuDkeGVYwBfIt-3" value="" style="endArrow=classic;html=1;rounded=0;fontSize=18;" edge="1" parent="1">
          <mxGeometry width="50" height="50" relative="1" as="geometry">
            <mxPoint x="312" y="220" as="sourcePoint" />
            <mxPoint x="392" y="220" as="targetPoint" />
          </mxGeometry>
        </mxCell>
        <mxCell id="4ZzyJBohuDkeGVYwBfIt-4" value="&lt;font style=&quot;font-size: 12px&quot;&gt;docker build&amp;nbsp;&lt;/font&gt;" style="text;html=1;strokeColor=none;fillColor=none;align=center;verticalAlign=middle;whiteSpace=wrap;rounded=0;fontSize=18;" vertex="1" parent="1">
          <mxGeometry x="312" y="220" width="80" height="30" as="geometry" />
        </mxCell>
        <mxCell id="4ZzyJBohuDkeGVYwBfIt-5" value="python:3.8" style="rounded=0;whiteSpace=wrap;html=1;fontSize=12;" vertex="1" parent="1">
          <mxGeometry x="400" y="240" width="180" height="40" as="geometry" />
        </mxCell>
        <mxCell id="4ZzyJBohuDkeGVYwBfIt-6" value="RUN apt-get -qq update" style="rounded=0;whiteSpace=wrap;html=1;fontSize=12;" vertex="1" parent="1">
          <mxGeometry x="400" y="200" width="180" height="40" as="geometry" />
        </mxCell>
        <mxCell id="4ZzyJBohuDkeGVYwBfIt-7" value="COPY hello.py /app/" style="rounded=0;whiteSpace=wrap;html=1;fontSize=12;" vertex="1" parent="1">
          <mxGeometry x="400" y="160" width="180" height="40" as="geometry" />
        </mxCell>
        <mxCell id="4ZzyJBohuDkeGVYwBfIt-8" value="CMD [&quot;python3&quot;, &quot;/app/hello.py&quot;]" style="rounded=0;whiteSpace=wrap;html=1;fontSize=12;" vertex="1" parent="1">
          <mxGeometry x="400" y="120" width="180" height="40" as="geometry" />
        </mxCell>
        <mxCell id="4ZzyJBohuDkeGVYwBfIt-10" value="&lt;font style=&quot;font-size: 18px&quot;&gt;Image&lt;/font&gt;" style="text;html=1;strokeColor=none;fillColor=none;align=center;verticalAlign=middle;whiteSpace=wrap;rounded=0;" vertex="1" parent="1">
          <mxGeometry x="400" y="90" width="60" height="30" as="geometry" />
        </mxCell>
      </root>
    </mxGraphModel>
  </diagram>
</mxfile>
